<?xml version="1.0" encoding="UTF-8"?>
<svg id="Layer_2" data-name="Layer 2" xmlns="http://www.w3.org/2000/svg" viewBox="0 0 137.784 32.948">
  <defs>
    <style>
      .cls-1 {
        fill: #facbd1;
      }
    </style>
  </defs>
  <g id="Layer_1-2" data-name="Layer 1">
    <g>
      <path class="cls-1" d="M8.641,6.607L14.186,1.063c.768-.768,2.04-.768,2.832.048.744.768.768,2.016,0,2.784l-5.4,5.4h3.192c1.32,0,2.4,1.08,2.4,2.4v6.792h-4.056c.048-.192.072-.384.072-.6,0-1.32-1.056-2.4-2.4-2.4-1.32,0-2.4,1.08-2.4,2.4,0,.216.024.408.072.6H0V.487h8.641v6.121Z"/>
      <path class="cls-1" d="M56.423,9.487C56.423,3.991,60.48.246,65.448.246s9.025,3.745,9.025,9.241-4.057,9.241-9.025,9.241-9.025-3.769-9.025-9.241ZM70.104,9.463c0-1.32-1.056-2.4-2.4-2.4-1.32,0-2.4,1.08-2.4,2.4s1.08,2.4,2.4,2.4c1.344,0,2.4-1.08,2.4-2.4Z"/>
      <path class="cls-1" d="M75.792.487h10.945c4.248,0,6.192,3.288,6.192,6.168,0,2.376-1.152,4.488-3.336,5.304l3.48,6.529h-4.177c.048-.192.072-.384.072-.6,0-1.32-1.057-2.4-2.4-2.4-1.32,0-2.4,1.08-2.4,2.4,0,.216.024.408.072.6h-8.449V.487ZM86.569,8.935c1.272,0,2.28-1.032,2.28-2.28s-1.008-2.28-2.28-2.28c-1.248,0-2.28,1.032-2.28,2.28s1.032,2.28,2.28,2.28Z"/>
      <path class="cls-1" d="M109.033.487v4.104h-6.505v4.704h2.28c1.32,0,2.4,1.08,2.4,2.4,0,.744-.336,1.392-.864,1.848l-1.008.816h3.696v4.128h-15.146V.487h15.146Z"/>
      <path class="cls-1" d="M110.591.487h12.938c2.712,0,4.416,2.376,4.416,4.536,0,2.472-1.56,4.008-3.504,4.584,2.088.552,3.504,2.088,3.504,4.537,0,2.424-1.68,4.344-4.872,4.344h-12.481V.487ZM123.769,5.407c0-1.2-.96-2.16-2.16-2.16-1.177,0-2.16.96-2.16,2.16,0,1.176.983,2.16,2.16,2.16,1.2,0,2.16-.984,2.16-2.16ZM123.769,13.568c0-1.2-.96-2.16-2.16-2.16-1.177,0-2.16.96-2.16,2.16,0,1.176.983,2.16,2.16,2.16,1.2,0,2.16-.984,2.16-2.16Z"/>
      <polyline class="cls-1" points="137.784 18.488 129.143 18.488 129.143 .487 137.784 .487"/>
      <path class="cls-1" d="M43.748,25.988v6.9h-.7v-5.51l-2.46,5.51h-.51l-2.46-5.49v5.49h-.7v-6.9h.74l2.67,5.98,2.67-5.98h.75Z"/>
      <path class="cls-1" d="M49.388,31.228h-3.18l-.61,1.66h-.74l2.55-6.9h.79l2.54,6.9h-.74l-.61-1.66ZM49.178,30.648l-1.38-3.78-1.38,3.78h2.76Z"/>
      <path class="cls-1" d="M55.948,25.898v.58h-1.94v6.41h-.7v-6.41h-1.95v-.58h4.59Z"/>
      <path class="cls-1" d="M57.188,27.543c.3-.543.71-.966,1.23-1.27.52-.303,1.1-.455,1.74-.455.78,0,1.448.185,2.005.555.557.37.962.892,1.215,1.565h-.82c-.2-.473-.505-.843-.915-1.11-.41-.267-.905-.4-1.485-.4-.513,0-.975.12-1.385.36-.41.24-.732.585-.965,1.035-.233.45-.35.972-.35,1.565s.116,1.113.35,1.56.555.79.965,1.03c.41.24.872.36,1.385.36.58,0,1.075-.132,1.485-.395.41-.264.715-.628.915-1.095h.82c-.253.667-.66,1.184-1.22,1.55-.56.367-1.227.55-2,.55-.64,0-1.22-.152-1.74-.455s-.93-.725-1.23-1.265c-.3-.54-.45-1.153-.45-1.84s.15-1.302.45-1.845Z"/>
      <path class="cls-1" d="M69.958,25.898v6.99h-.7v-3.27h-3.79v3.27h-.7v-6.99h.7v3.14h3.79v-3.14h.7Z"/>
      <path class="cls-1" d="M75.608,31.228h-3.18l-.61,1.66h-.74l2.55-6.9h.79l2.541,6.9h-.74l-.61-1.66ZM75.398,30.648l-1.38-3.78-1.38,3.78h2.76Z"/>
      <path class="cls-1" d="M85.087,29.878c.273.327.41.707.41,1.14,0,.354-.088.672-.265.955-.177.284-.436.507-.775.67-.34.164-.746.245-1.22.245h-2.42v-6.99h2.35c.707,0,1.245.164,1.615.49s.555.75.555,1.27c0,.434-.116.785-.35,1.055s-.533.458-.9.565c.394.073.727.273,1,.6ZM81.518,28.988h1.63c.474,0,.838-.112,1.095-.335.257-.224.385-.532.385-.925,0-.386-.128-.69-.385-.91-.257-.22-.632-.33-1.125-.33h-1.6v2.5ZM84.373,31.938c.283-.24.425-.57.425-.99s-.148-.755-.444-1.005c-.297-.25-.695-.375-1.195-.375h-1.64v2.73h1.67c.507,0,.901-.12,1.185-.36Z"/>
      <path class="cls-1" d="M90.837,31.228h-3.18l-.61,1.66h-.74l2.551-6.9h.79l2.54,6.9h-.74l-.61-1.66ZM90.627,30.648l-1.38-3.78-1.38,3.78h2.76Z"/>
      <path class="cls-1" d="M97.028,32.888l-1.73-2.92h-1.29v2.92h-.7v-6.99h2.101c.78,0,1.371.187,1.774.56.403.374.605.864.605,1.47,0,.507-.146.938-.435,1.295-.29.357-.719.588-1.285.695l1.8,2.97h-.84ZM94.007,29.398h1.41c.547,0,.958-.133,1.235-.4.276-.267.415-.623.415-1.07,0-.46-.134-.815-.4-1.065s-.687-.375-1.26-.375h-1.4v2.91Z"/>
      <g>
        <path class="cls-1" d="M46.369,7.087c-.744-3.792-4.872-6.745-8.761-6.745v7.98c.254.018.498.036.708.057,0,0,1.003.139,2.11-.146,0,0,1.239-.603-.917,1.819-.519.583-1.079,1.121-1.584,1.716-.094.11-.202.233-.316.36v6.361h6.433c-.048-.192-.072-.384-.072-.6,0-1.32,1.08-2.4,2.4-2.4,1.344,0,2.4,1.08,2.4,2.4,0,.216-.024.408-.072.6h6.409V.343c-3.888,0-8.017,3-8.737,6.745Z"/>
        <path class="cls-1" d="M36.519,10.929c-.018-.003-.093.024-.201.067-.008.048-.012.099-.021.146.074-.071.154-.139.222-.213Z"/>
        <path class="cls-1" d="M27.567,15.887s-1.504-.691-3.28.467c0,0-.606.211-1.289.996,1.315.727,2.832,1.132,4.449,1.132,3.142,0,5.917-1.511,7.534-4.004-1.464.991-3.129,1.581-4.792,1.607-.758.012-1.455.065-2.621-.199Z"/>
        <path class="cls-1" d="M21.144,11.436l-.353-.757c-.97-2.082-1.125-4.646-.483-7.236-1.177,1.536-1.886,3.512-1.886,5.798,0,3.218,1.408,5.838,3.574,7.458.868-2.31.085-3.25-.852-5.262Z"/>
        <path class="cls-1" d="M26.214,7.942c-.346,2.168-1.156,3.627-1.799,4.489-.146.196-.281.399-.409.604,2.254-7.86-.934-9.857-1.15-9.777,1.993,3.859,1.37,7.889.415,11.165-.099.219-.655,1.772-.944,2.519.135.091.276.174.416.258.116-.15.237-.302.371-.456.121-.139.212-.255.301-.37,1.317-1.097,1.962-1.838,5.765-2.621,0,0,4.927-.522,7.117-2.61.009-.048.013-.098.021-.146-.66.262-2.908,1.279-5.627,1.795,0,0-3.029.42-4.798,1.405-.62.345-1.299.759-1.902,1.243.073-.15.15-.314.243-.512.21-.448.9-1.476,1.328-2.073.62-.867,1.394-1.587,2.249-2.18-.314-.406-.508-.907-.508-1.457,0-1.32,1.08-2.4,2.4-2.4,1.214,0,2.184.883,2.363,2.025.643-.173,1.361-.34,2.169-.49.603-.112,1.212-.142,1.808-.116.119.005.252.012.383.018-.454-4.953-4.314-8.254-8.979-8.254-1.16,0-2.267.212-3.288.595.365.791.833,1.611,1.223,2.321.778,1.414,1.128,3.164.831,5.026Z"/>
      </g>
    </g>
  </g>
</svg>